<?xml version="1.0" encoding="utf-8"?>
<!-- Generator: Adobe Illustrator 22.1.0, SVG Export Plug-In . SVG Version: 6.00 Build 0)  -->
<svg version="1.1" id="Ebene_1" xmlns="http://www.w3.org/2000/svg" xmlns:xlink="http://www.w3.org/1999/xlink" x="0px" y="0px"
	 viewBox="0 0 445.999 144.001" style="enable-background:new 0 0 445.999 144.001;" xml:space="preserve">
<style type="text/css">
	.st0{fill:#BD28EB;}
</style>
<g>
	<g>
		<path class="st0" d="M220.879,80.949c-4.64,0-7.992,1.464-10.226,5.685h-0.172V81.81h-11.515v62.191h12.116v-22.826h0.172
			c2.492,3.704,5.499,4.996,9.882,4.996c12.202,0,11.858-13.524,11.858-22.31C232.995,94.903,233.425,80.949,220.879,80.949z
			 M215.981,118.677c-4.125,0-4.898-4.565-4.898-15.504c0-8.7-0.086-14.73,4.898-14.73c5.242,0,5.156,6.03,5.156,14.73
			C221.137,114.112,220.364,118.677,215.981,118.677z M271.432,95.506c0-7.925-1.976-14.557-17.358-14.557
			c-4.64,0-8.593,0.776-11.343,2.843c-2.836,1.981-4.468,5.341-4.468,10.595h11.858c0-3.445,0.344-6.632,4.554-6.632
			c4.382,0,4.898,2.67,4.898,6.374v3.359c-11.257-0.172-22.342,0.431-22.342,14.816c0,7.58,3.094,13.868,11.515,13.868
			c5.242,0,8.765-2.154,11.343-6.633h0.172l0.516,5.771h11.257c-0.258-2.67-0.602-5.427-0.602-8.097V95.506z M253.558,118.677
			c-3.953,0-4.468-3.79-4.468-6.891c0-7.752,4.468-7.236,10.483-7.494C259.573,109.029,260.69,118.677,253.558,118.677z
			 M288.494,87.409h-0.172V81.81h-11.515v43.499h12.116v-23.688c0-4.307,0.172-10.509,10.827-9.82V80.949
			C294.853,80.949,290.728,82.413,288.494,87.409z M307.263,83.791c-2.836,1.981-4.468,5.341-4.468,10.595h11.858
			c0-3.445,0.344-6.632,4.555-6.632c4.382,0,4.898,2.67,4.898,6.374v3.359c-11.257-0.172-22.342,0.431-22.342,14.816
			c0,7.58,3.094,13.868,11.515,13.868c5.242,0,8.765-2.154,11.343-6.633h0.172l6.741-35.626c0,0-6.637-2.964-12.928-2.964
			C313.966,80.949,310.013,81.724,307.263,83.791z M318.09,118.677c-3.953,0-4.468-3.79-4.468-6.891
			c0-7.752,4.468-7.236,10.483-7.494C324.105,109.029,325.222,118.677,318.09,118.677z M333.446,90.778v16.156h12.116V44.743h-3.523
			L333.446,90.778z M352.806,106.934h12.116V44.743h-12.116V106.934z M402.751,77.13c0-7.925-1.976-14.557-17.358-14.557
			c-4.64,0-8.593,0.775-11.343,2.843c-2.836,1.981-4.468,5.34-4.468,10.595h11.858c0-3.445,0.344-6.633,4.554-6.633
			c4.382,0,4.898,2.67,4.898,6.374v3.359c-11.257-0.172-22.342,0.431-22.342,14.816c0,7.58,3.094,13.868,11.515,13.868
			c5.242,0,8.765-2.154,11.343-6.633h0.172l0.516,5.771h11.257c-0.258-2.67-0.601-5.427-0.601-8.097V77.13z M384.878,100.301
			c-3.953,0-4.468-3.79-4.468-6.891c0-7.752,4.468-7.236,10.483-7.494C390.892,90.654,392.01,100.301,384.878,100.301z
			 M433.539,84.28l11.601-20.845h-12.116l-7.304,13.179l-6.359-13.179h-13.577l11.772,20.673l-12.803,22.826h12.03l7.992-15.246
			l7.562,15.246h13.663L433.539,84.28z M43.48,17.83c-4.984,0-8.421,1.723-11.257,5.513c-1.976-3.445-5.414-5.513-9.71-5.513
			c-4.554,0-7.82,1.378-10.226,5.254h-0.172v-4.393H0v43.499h12.116V32.215c0-3.876,0.688-6.891,4.554-6.891
			c3.867,0,4.554,3.015,4.554,6.891v29.976h11.858V32.215c0-3.876,0.687-6.891,4.554-6.891c3.867,0,4.555,3.015,4.555,6.891v29.976
			h12.116V27.305C54.308,21.276,49.238,17.83,43.48,17.83z M93.146,18.692H81.03V48.84c0,3.876-0.687,6.719-4.554,6.719
			c-3.867,0-4.555-2.843-4.555-6.719V18.692H59.805v34.885c0,6.03,5.07,9.475,10.827,9.475c2.32,0,4.211-0.345,5.929-1.206
			c1.719-0.775,3.094-2.153,4.297-4.048h0.172v4.393h12.546c-0.258-2.842-0.43-5.771-0.43-8.614V18.692z M112.747,6.374
			l-12.116,5.427v6.891h-4.898v7.494h4.898v26.789c0,2.67,1.375,9.647,11.858,9.647c2.922,0,4.64-0.259,6.273-0.431v-7.494
			c-0.601,0.172-1.375,0.172-2.148,0.172c-3.953,0-3.867-2.154-3.867-5.427V26.186h6.273v-7.494h-6.273V6.374z M144.326,17.83
			c-2.234,0-4.211,0.345-5.929,1.206c-1.633,0.775-3.093,2.067-4.297,4.048h-0.172V0h-12.116v62.191h12.116V32.215
			c0-3.876,0.688-6.891,4.554-6.891c3.867,0,4.554,3.015,4.554,6.891v29.976h12.116V27.305
			C155.153,21.276,150.083,17.83,144.326,17.83z M177.666,17.83c-15.983,0-17.702,10.164-17.702,22.051
			c0,13.61,2.062,23.171,17.702,23.171c5.672,0,9.968-1.55,12.804-4.221c2.921-2.67,4.468-6.547,4.64-11.284h-12.288
			c0,3.618-0.859,7.753-5.156,7.753c-5.328,0-5.499-7.753-5.499-12.92h23.201C195.798,28.425,193.993,17.83,177.666,17.83z
			 M183.252,35.575h-11.085c0-3.704-0.086-10.25,5.499-10.25C183.424,25.324,183.252,31.354,183.252,35.575z M215.441,63.052
			c10.054,0,16.241-5.685,16.241-13.265c0-13.954-21.311-13.61-21.311-20.501c0-2.928,1.461-4.651,4.125-4.651
			c1.289,0,2.32,0.172,3.094,0.947c0.859,0.775,1.203,2.584,1.203,5.599h11.859c0.687-9.389-6.789-13.351-15.038-13.351
			c-7.82,0-17.1,2.842-17.1,12.232c0,13.868,21.31,11.801,21.31,21.017c0,2.929-2.062,4.479-4.468,4.479
			c-2.406,0-3.695-0.689-4.383-2.067c-0.601-1.378-0.687-3.273-0.601-5.254h-11.858C197.825,60.382,204.871,63.052,215.441,63.052z
			 M248.153,18.692h-12.116v43.499h12.116V18.692z M288.239,62.191c-0.258-2.842-0.43-5.771-0.43-8.614V18.692h-12.116V48.84
			c0,3.876-0.687,6.719-4.554,6.719c-3.867,0-4.554-2.843-4.554-6.719V18.692h-12.116v34.885c0,6.03,5.07,9.475,10.827,9.475
			c2.32,0,4.211-0.345,5.929-1.206c1.719-0.775,3.093-2.153,4.296-4.048h0.172v4.393H288.239z M308.888,63.052
			c10.054,0,16.241-5.685,16.241-13.265c0-13.954-21.311-13.61-21.311-20.501c0-2.928,1.461-4.651,4.125-4.651
			c1.289,0,2.32,0.172,3.093,0.947c0.859,0.775,1.203,2.584,1.203,5.599h11.858c0.688-9.389-6.789-13.351-15.038-13.351
			c-7.82,0-17.1,2.842-17.1,12.232c0,13.868,21.311,11.801,21.311,21.017c0,2.929-2.062,4.479-4.469,4.479
			c-2.406,0-3.695-0.689-4.382-2.067c-0.602-1.378-0.687-3.273-0.602-5.254h-11.858C291.272,60.382,298.318,63.052,308.888,63.052z"
			/>
	</g>
</g>
</svg>
